<svg xmlns="http://www.w3.org/2000/svg" xmlns:xlink="http://www.w3.org/1999/xlink" viewBox="0 0 497.65 497.65"><defs><style>.cls-1{isolation:isolate;}.cls-2{fill:url(#linear-gradient);}.cls-3,.cls-5,.cls-8,.cls-9{mix-blend-mode:multiply;}.cls-3{fill:url(#New_Gradient_Swatch_copy_11);}.cls-4{fill:url(#linear-gradient-2);}.cls-5{fill:url(#linear-gradient-3);}.cls-6{fill:url(#linear-gradient-4);}.cls-7{fill:url(#linear-gradient-5);}.cls-8{fill:url(#linear-gradient-6);}.cls-9{fill:url(#linear-gradient-7);}</style><linearGradient id="linear-gradient" x1="190.21" y1="316.72" x2="137.44" y2="169.43" gradientTransform="matrix(1, 0.01, -0.01, 1.02, -16.26, 84.42)" gradientUnits="userSpaceOnUse"><stop offset="0" stop-color="#32373b"/><stop offset="1" stop-color="#5f6469"/></linearGradient><linearGradient id="New_Gradient_Swatch_copy_11" x1="157.64" y1="332.1" x2="151.34" y2="171.42" gradientTransform="matrix(1, 0.01, -0.01, 1.02, -16.26, 84.42)" gradientUnits="userSpaceOnUse"><stop offset="0" stop-color="#7b728c"/><stop offset="1" stop-color="#e1d9ff" stop-opacity="0"/></linearGradient><linearGradient id="linear-gradient-2" x1="275.11" y1="418.58" x2="261.91" y2="-32.2" gradientTransform="matrix(1, 0.01, -0.01, 1.02, -16.26, 84.42)" gradientUnits="userSpaceOnUse"><stop offset="0" stop-color="#f2f2f2"/><stop offset="0.6" stop-color="#f4f4f4"/><stop offset="0.94" stop-color="#fcfcfc"/><stop offset="1" stop-color="#fff"/></linearGradient><linearGradient id="linear-gradient-3" x1="360.26" y1="210.98" x2="74.91" y2="77.46" gradientTransform="matrix(1, 0.01, -0.01, 1.02, -16.26, 84.42)" gradientUnits="userSpaceOnUse"><stop offset="0"/><stop offset="0.03" stop-color="#101010" stop-opacity="0.94"/><stop offset="1" stop-color="#f2f2f2" stop-opacity="0"/></linearGradient><linearGradient id="linear-gradient-4" x1="377.41" y1="317.44" x2="371.48" y2="114.99" gradientTransform="matrix(1, 0.01, -0.01, 1.02, -16.26, 84.42)" gradientUnits="userSpaceOnUse"><stop offset="0" stop-color="#f2f2f2"/><stop offset="0.55" stop-color="#f6f6f6"/><stop offset="1" stop-color="#fff"/></linearGradient><linearGradient id="linear-gradient-5" x1="195.78" y1="284.94" x2="146.16" y2="7.69" gradientTransform="matrix(1, 0.01, -0.01, 1.02, -16.26, 84.42)" gradientUnits="userSpaceOnUse"><stop offset="0" stop-color="#f2f2f2"/><stop offset="0.58" stop-color="#f5f5f5"/><stop offset="0.95" stop-color="#fdfdfd"/><stop offset="1" stop-color="#fff"/></linearGradient><linearGradient id="linear-gradient-6" x1="97.89" y1="307.05" x2="212.89" y2="31.38" gradientTransform="matrix(1, 0.01, -0.01, 1.02, -16.26, 84.42)" gradientUnits="userSpaceOnUse"><stop offset="0"/><stop offset="0.15" stop-color="#767676" stop-opacity="0.51"/><stop offset="1" stop-color="#f2f2f2" stop-opacity="0"/></linearGradient><linearGradient id="linear-gradient-7" x1="271.67" y1="290.23" x2="435.5" y2="124.03" xlink:href="#linear-gradient-3"/></defs><g class="cls-1"><g id="OBJECTS"><path class="cls-2" d="M222.36,357.53c-1.16,7.21-3.69,12.9-7.28,17.22a3.33,3.33,0,0,1-.79.84c-24.6,27.16-94.89-3.11-125-37.86-35-40.43-54.18-79.6-32.43-118.23,78.07,116.15,140.44,132.27,165.3,115.72A74.49,74.49,0,0,1,222.36,357.53Z"/><path class="cls-3" d="M222.36,357.53c-1.16,7.21-3.69,12.9-7.28,17.22a3.33,3.33,0,0,1-.79.84c-24.6,27.16-94.89-3.11-125-37.86-35-40.43-54.18-79.6-32.43-118.23C51.39,291.38,128.39,339.14,154,351s57.48,22.75,68.17-15.77A74.49,74.49,0,0,1,222.36,357.53Z"/><path class="cls-4" d="M288,260.87,265,211.45c34.22,26.47,121.81-72.93,104.52-106a17.23,17.23,0,0,0-8.89-7.93C318.28,79.39,182.36,213,170.7,437.68c-65.94-40.06-79.31-140.54-32.08-239.43S325.52,29.07,373.2,81.18,349.73,268.31,288,260.87Z"/><path class="cls-5" d="M369.58,105.45h0a17.23,17.23,0,0,0-8.89-7.93C318.28,79.39,182.36,213,170.7,437.68,156,411.81,132.16,362.39,154,284.53c29.38-104.94,86.42-160.81,117.28-183.28C307.69,74.69,354.69,72.87,369.58,105.45Z"/><path class="cls-6" d="M265,211.46C279.91,316.75,356,377.11,399.89,374.6c44.31-2.53,56.24-62.7,39.43-94.51C427.37,339.9,322.51,283.8,265,211.46Z"/><path class="cls-7" d="M218,371.51c-.94,1.08-1.91,2.16-2.94,3.24,3.59-4.32,6.12-10,7.28-17.22a74.49,74.49,0,0,0-.24-22.31c-8.63-58-73.36-145.36-169.89-184.32,36.18-36.28,91.72-46.23,148.25,25.79C257.43,249.23,266.47,317,218,371.51Z"/><path class="cls-8" d="M218,371.51c-.94,1.08-1.91,2.16-2.94,3.24,3.59-4.32,6.12-10,7.28-17.22a74.49,74.49,0,0,0-.24-22.31c-8.63-58-73.36-145.36-169.89-184.32,63.05-18.49,109.28,12.21,153.1,73.59C247.37,283.36,240.71,344.25,218,371.51Z"/><path class="cls-9" d="M399.9,374.58C356,377.1,279.89,316.75,265,211.45c40.61,102.72,175.55,188.7,174.32,68.62C456.13,311.91,444.21,372.06,399.9,374.58Z"/></g></g></svg>